<?xml version="1.0" encoding="UTF-8" standalone="no"?>
<svg
   viewBox="0 0 76 76"
   id="vector"
   version="1.1"
   sodipodi:docname="logo_76x76.svg"
   width="76"
   height="76"
   inkscape:version="1.4 (e7c3feb, 2024-10-09)"
   xmlns:inkscape="http://www.inkscape.org/namespaces/inkscape"
   xmlns:sodipodi="http://sodipodi.sourceforge.net/DTD/sodipodi-0.dtd"
   xmlns="http://www.w3.org/2000/svg"
   xmlns:svg="http://www.w3.org/2000/svg">
  <defs
     id="defs1" />
  <sodipodi:namedview
     id="namedview1"
     pagecolor="#ffffff"
     bordercolor="#000000"
     borderopacity="0.25"
     inkscape:showpageshadow="false"
     inkscape:pageopacity="0.0"
     inkscape:pagecheckerboard="0"
     inkscape:deskcolor="#d1d1d1"
     showborder="false"
     inkscape:zoom="25.59375"
     inkscape:cx="55.091575"
     inkscape:cy="6.9352869"
     inkscape:window-width="1920"
     inkscape:window-height="1066"
     inkscape:window-x="0"
     inkscape:window-y="27"
     inkscape:window-maximized="1"
     inkscape:current-layer="vector" />
  <path
     id="path"
     d="m 63.456241,62.243667 c 0.747104,-2.044861 1.546552,-4.094469 2.41738,-6.191577 0.775655,-0.427497 1.489448,-0.790869 2.169931,-1.204117 0.13562,-0.08076 0.199861,-0.351497 0.20462,-0.53437 0.01665,-1.130492 0.01665,-2.260982 0.0024,-3.391474 -0.0047,-0.242248 -0.09041,-0.484495 -0.14038,-0.724369 1.311001,-3.351099 2.619621,-6.699822 3.935379,-10.048546 0.07852,-0.197123 0.230794,-0.365747 0.392586,-0.574746 0.04997,5.557457 0.06186,11.141038 0.05948,16.722244 0,1.002242 -0.804206,1.432114 -1.558448,1.850111 -2.469723,1.375115 -4.953724,2.726478 -7.482931,4.096844 z M 7.7494482,25.98245 c -0.3188275,0.942868 -0.6067241,1.895234 -0.9612413,2.823852 -0.9088965,2.370233 -1.8415862,4.728589 -2.7766552,7.086944 -0.095172,0.24225 -0.268862,0.458372 -0.4496896,0.712495 C 3.5118966,31.03641 3.5,25.440953 3.5,19.845497 3.5,18.850381 4.2447241,18.335009 5.0227586,17.900388 7.5043793,16.520523 10.000276,15.164409 12.541379,13.79167 11.803793,15.841279 11.013862,17.895638 10.135897,19.990372 9.4221034,20.370369 8.813,20.74324 8.1682069,21.040113 7.8065517,21.203986 7.7304138,21.41536 7.7351724,21.762108 c 0.019034,1.408364 0.011897,2.814352 0.014276,4.220342 z M 63.403896,62.250791 c -4.389828,2.434356 -8.779655,4.873462 -13.174241,7.303069 -3.723621,2.056733 -7.459138,4.099216 -11.185138,6.155951 -0.694758,0.382371 -1.384759,0.387121 -2.065242,0.01187 C 34.809344,74.524691 32.65131,73.311075 30.483759,72.109335 28.118724,70.798345 25.748931,69.49923 23.383896,68.185866 21.087862,66.912879 18.798966,65.625639 16.502931,64.35265 14.463862,63.222158 12.422414,62.096418 10.378586,60.977801 8.1610689,59.76656 5.9387931,58.56482 3.6736897,57.332204 4.3184828,55.683967 4.949,54.066605 5.5866552,52.453993 c 1.272931,-3.227599 2.5411034,-6.457575 3.825931,-9.6828 1.3704828,-3.443723 2.7695168,-6.875572 4.1352418,-10.32167 0.713793,-1.800235 1.470413,-3.593345 2.046206,-5.436332 0.590069,-1.890484 2.391208,-2.277607 3.93538,-1.417864 2.495896,1.391739 5.029862,2.71223 7.544793,4.068345 3.37862,1.819235 6.752483,3.647971 10.135862,5.460081 2.041448,1.097241 4.10431,2.161233 6.148138,3.253725 2.840896,1.519987 5.669896,3.056601 8.508413,4.576589 1.69407,0.904868 3.397655,1.793111 5.201173,2.743104 l 9.562448,-25.267429 -2.740965,-1.505737 c -0.325966,0.788493 -0.649552,1.505737 -0.925552,2.239608 -1.479931,3.935344 -2.978896,7.865938 -4.408862,11.820282 -0.692379,1.918985 -2.410241,1.95461 -3.923483,1.123366 -1.636966,-0.900118 -3.281069,-1.785986 -4.925173,-2.674229 -2.874206,-1.550863 -5.746033,-3.101726 -8.624999,-4.645463 -1.582241,-0.847869 -3.178759,-1.671987 -4.761,-2.519856 -2.859931,-1.534239 -5.712725,-3.082726 -8.577414,-4.612214 -1.974828,-1.056866 -3.961551,-2.087609 -5.941138,-3.137351 -1.520379,-0.809867 -3.036,-1.629236 -4.565897,-2.453356 L 3.6879655,48.475899 C 3.6261035,48.471149 3.5618621,48.468774 3.5,48.464024 c 0,-3.899721 0,-7.797065 0.052345,-11.791783 0.1903449,-0.320623 0.3640345,-0.536745 0.4592069,-0.778995 0.935069,-2.358355 1.8677587,-4.716711 2.7766552,-7.086944 0.3545172,-0.928618 0.6424138,-1.880984 1.0112068,-2.842852 0.1403793,-0.239873 0.2284139,-0.460746 0.3140691,-0.681621 0.6804827,-1.75036 1.3609655,-3.500721 2.0771382,-5.291457 0.823241,-2.094734 1.613172,-4.149093 2.403103,-6.205827 4.297034,-2.386856 8.594069,-4.7713376 12.888724,-7.1629439 3.733138,-2.0804837 7.466276,-4.1562176 11.185138,-6.26045102 1.244379,-0.70536949 2.288897,-0.26362294 3.371483,0.35149725 3.014586,1.70998667 6.048207,3.38909847 9.069931,5.08483527 2.593448,1.4582385 5.175,2.933102 7.773207,4.3842154 2.405483,1.34424 4.83,2.65998 7.235483,4.004219 2.058103,1.149491 4.10431,2.320356 6.155276,3.481723 0.511551,0.289748 1.001689,0.626995 1.541793,0.854993 0.528206,0.223249 0.540103,0.54387 0.368792,0.964243 -1.182516,2.902227 -2.374551,5.797329 -3.547551,8.704306 -1.299103,3.2181 -2.58869,6.443325 -3.864,9.673299 -1.510862,3.826095 -3.045518,7.645065 -4.48262,11.494911 -0.516311,1.382239 -2.184208,1.92136 -3.671277,1.085367 C 54.714655,49.376017 52.796931,48.323901 50.872069,47.288408 47.345931,45.388423 43.812656,43.502687 40.277,41.619328 38.302173,40.56721 36.31069,39.543593 34.338241,38.484351 31.069069,36.729241 27.816552,34.950379 24.545,33.197643 22.750999,32.235776 20.937965,31.307158 19.005966,30.29779 l -9.5910005,25.338677 2.7909315,1.451114 c 0.597207,-1.555613 1.177758,-3.042351 1.739275,-4.538589 1.234862,-3.286975 2.441173,-6.583449 3.695069,-9.860923 0.461587,-1.20649 1.832069,-1.795485 3.181138,-1.090116 1.708345,0.892993 3.411932,1.78836 5.110758,2.697978 1.996242,1.066367 3.982967,2.149359 5.974449,3.22285 2.874207,1.548489 5.748414,3.101725 8.627379,4.645464 2.279379,1.223115 4.561138,2.441481 6.842897,3.655096 3.257276,1.733737 6.514552,3.462723 9.771827,5.194085 0.518691,0.275498 1.03738,0.555744 1.69169,0.904867 4.508793,-11.468785 8.998552,-22.885321 13.48831,-34.301856 0.05711,0.0047 0.114208,0.01187 0.171311,0.019 0,3.925844 0,7.851688 -0.05235,11.872532 -0.17131,0.275498 -0.323586,0.444122 -0.402104,0.641245 -1.315758,3.348724 -2.624378,6.697447 -3.940137,10.103171 -0.759,1.952235 -1.515621,3.84747 -2.286518,5.794955 -0.816103,2.101858 -1.615551,4.151466 -2.415,6.203451 M 38.980276,4.9472392 C 38.58531,4.8403651 38.095173,4.5363674 37.814413,4.6622415 36.715172,5.1538625 35.682552,5.7808577 34.626138,6.3603532 32.518069,7.521719 30.405241,8.678335 28.301931,9.8492008 26.700655,10.739819 25.111276,11.647062 23.441,12.58993 l 31.744758,16.981116 c 1.641725,-4.350965 3.24776,-8.611682 4.86807,-12.905649 C 53.018207,12.763303 46.03969,8.8920834 38.980276,4.9472392 M 21.263931,46.630539 c -0.525828,-0.470247 -0.528207,0.154374 -0.594828,0.322997 -0.361655,0.907243 -0.642413,1.84536 -0.987413,2.757353 -1.14207,3.0186 -2.296035,6.032453 -3.459518,9.041555 -0.140379,0.365746 -0.176069,0.574745 0.254586,0.805118 1.991484,1.073491 3.952035,2.192107 5.929242,3.289349 2.108069,1.170866 4.223276,2.329856 6.331345,3.503098 2.964621,1.648238 5.922104,3.310724 8.898621,4.942336 0.20462,0.111625 0.594827,0.0855 0.811344,-0.02849 1.475173,-0.783744 2.926552,-1.607862 4.387448,-2.417731 2.127103,-1.180365 4.256587,-2.353606 6.381311,-3.536348 1.134931,-0.629368 2.260345,-1.270614 3.435724,-1.93086 -2.041449,-1.078246 -4.028172,-2.116112 -6.003,-3.170604 -3.442862,-1.840612 -6.878586,-3.695471 -10.321448,-5.536082 -1.932,-1.033117 -3.875896,-2.042484 -5.807897,-3.075601 -3.055035,-1.633987 -6.10531,-3.277473 -9.255517,-4.966085 z"
     fill="#8c8c8c"
     stroke-width="2.37714"
     style="fill:#6352cd;fill-opacity:1" />
</svg>
