<svg width="750" xmlns="http://www.w3.org/2000/svg" height="750" fill="none"><defs><clipPath id="a" class="frame-clip frame-clip-def"><rect rx="0" ry="0" width="750" height="750" transform="matrix(1.000000, 0.000000, 0.000000, 1.000000, 0.000000, 0.000000)"/></clipPath></defs><g clip-path="url(#a)"><g class="fills"><rect width="750" height="750" class="frame-background" transform="matrix(1.000000, 0.000000, 0.000000, 1.000000, 0.000000, 0.000000)" style="fill: rgb(255, 255, 255); fill-opacity: 0;" ry="0" rx="0" fill="none"/></g><g style="fill: rgb(0, 0, 0);" class="frame-children"><defs><linearGradient x1="32" y1="0" x2="32" y2="64" id="b" gradientUnits="userSpaceOnUse" gradientTransform="matrix(8.000000, 0.000000, 0.000000, 8.125000, 123.000000, 115.000000)"><stop stop-color="#ffd000"/><stop offset="1" stop-color="#ffa800"/></linearGradient></defs><path d="M115.000,245.000C115.000,173.500,172.600,115.000,243.000,115.000L499.000,115.000C569.400,115.000,627.000,173.500,627.000,245.000L627.000,505.000C627.000,576.500,569.400,635.000,499.000,635.000L243.000,635.000C172.600,635.000,115.000,576.500,115.000,505.000L115.000,245.000ZZ" fill="url(#b)" style="fill: url(&quot;#b&quot;);" class="fills"/><path d="M381.759,577.695C381.327,577.420,380.842,577.136,380.680,577.064C380.518,576.991,380.161,576.771,379.886,576.574C379.610,576.376,376.918,574.726,373.902,572.908C370.886,571.089,368.179,569.453,367.887,569.271C367.595,569.090,365.752,567.977,363.792,566.799C361.831,565.621,359.862,564.437,359.418,564.169C358.607,563.680,357.887,563.251,356.696,562.545C356.346,562.338,355.087,561.570,353.900,560.841C351.916,559.620,348.808,557.743,347.132,556.753C346.754,556.529,346.225,556.194,345.955,556.006C345.685,555.819,345.200,555.535,344.876,555.375C344.552,555.214,344.067,554.930,343.797,554.743C343.527,554.556,342.975,554.208,342.571,553.970C341.697,553.458,341.313,553.227,338.107,551.295C334.940,549.385,335.063,549.459,331.045,547.013C326.618,544.319,327.064,544.588,322.511,541.865C320.353,540.574,317.704,538.973,316.625,538.305C315.546,537.638,314.134,536.785,313.486,536.410C312.839,536.035,312.022,535.508,311.671,535.239L311.034,534.749L311.036,491.256L311.039,447.762L311.731,447.296C312.111,447.039,315.487,444.983,319.232,442.727C322.978,440.470,326.792,438.166,327.710,437.607C329.381,436.589,330.060,436.180,331.339,435.419C332.272,434.865,332.897,434.490,335.753,432.767C337.102,431.954,338.481,431.125,338.817,430.925C339.153,430.725,339.993,430.208,340.683,429.777C342.994,428.334,342.921,428.356,343.751,428.835C344.154,429.068,344.801,429.442,345.190,429.666C345.579,429.891,346.550,430.483,347.348,430.982C348.825,431.906,350.836,433.116,352.429,434.039C352.915,434.320,354.106,435.033,355.077,435.623C356.871,436.713,357.575,437.137,358.805,437.868C359.183,438.092,359.779,438.449,360.129,438.661C360.480,438.873,362.356,439.989,364.298,441.140C366.240,442.292,367.890,443.331,367.964,443.448C368.114,443.688,367.532,444.132,365.377,445.419C362.952,446.868,361.975,447.457,361.355,447.845C361.031,448.048,360.436,448.411,360.031,448.651C358.290,449.685,357.965,449.881,356.941,450.516C355.926,451.145,355.619,451.331,353.900,452.352C353.523,452.576,352.927,452.931,352.576,453.139C352.226,453.348,349.996,454.697,347.622,456.136C345.249,457.576,342.203,459.416,340.854,460.226L338.402,461.698L338.402,488.883L338.402,516.069L338.991,516.417C339.679,516.824,345.030,520.051,350.467,523.339C352.571,524.611,355.750,526.522,357.530,527.586C359.310,528.651,361.420,529.931,362.219,530.432C363.017,530.933,363.944,531.506,364.279,531.704C364.613,531.903,365.682,532.548,366.653,533.138C368.448,534.229,369.154,534.653,370.380,535.382C370.758,535.606,371.376,535.974,371.753,536.198C372.131,536.422,372.771,536.804,373.176,537.046C373.581,537.288,374.088,537.589,374.304,537.714C374.520,537.840,375.069,538.193,375.526,538.498C375.983,538.804,376.410,539.054,376.477,539.054C376.541,539.054,376.832,539.227,377.118,539.438C377.405,539.650,377.948,540.005,378.326,540.228C378.703,540.451,379.869,541.151,380.915,541.782C381.961,542.414,382.915,542.930,383.034,542.930C383.153,542.930,384.107,542.414,385.154,541.782C387.126,540.592,387.885,540.136,388.969,539.491C389.319,539.282,390.092,538.810,390.685,538.442C391.279,538.074,392.029,537.614,392.353,537.420C392.677,537.225,393.736,536.584,394.707,535.994C396.452,534.935,397.140,534.520,398.386,533.779C398.736,533.570,399.509,533.098,400.102,532.730C401.117,532.101,401.425,531.915,403.143,530.894C405.050,529.761,411.148,526.085,414.816,523.858C416.705,522.712,419.750,520.874,421.585,519.775C423.419,518.676,425.538,517.393,426.293,516.925L427.666,516.074L427.714,489.920L427.762,463.767L426.928,463.259C426.469,462.979,425.128,462.155,423.949,461.427C422.769,460.700,421.780,460.104,421.750,460.104C421.718,460.104,421.229,459.816,420.658,459.463C419.461,458.725,412.421,454.486,410.202,453.168C409.825,452.943,409.207,452.576,408.829,452.352C407.859,451.775,407.197,451.378,404.415,449.698C403.066,448.884,401.477,447.941,400.883,447.602C400.290,447.263,399.570,446.816,399.284,446.609C398.997,446.401,398.714,446.232,398.655,446.232C398.599,446.232,398.079,445.943,397.508,445.591C396.937,445.239,396.205,444.792,395.881,444.597C395.557,444.403,393.269,443.030,390.797,441.547C388.324,440.063,385.964,438.629,385.553,438.359C385.141,438.089,384.757,437.867,384.698,437.867C384.642,437.867,384.263,437.653,383.861,437.390C383.458,437.127,382.732,436.679,382.246,436.395C381.503,435.959,379.916,435.009,374.448,431.722C374.097,431.512,373.501,431.156,373.123,430.931C371.424,429.921,371.101,429.727,370.123,429.124C369.552,428.771,369.051,428.483,369.009,428.483C368.969,428.483,368.231,428.035,367.372,427.486C366.513,426.938,365.337,426.217,364.758,425.884C364.180,425.552,363.375,425.082,362.971,424.841C362.566,424.600,361.948,424.232,361.598,424.024C361.247,423.815,360.493,423.356,359.921,423.004C359.350,422.651,358.852,422.363,358.815,422.363C358.775,422.363,357.580,421.629,356.153,420.731C354.727,419.833,353.533,419.099,353.501,419.099C353.469,419.099,352.354,418.443,351.022,417.640C349.690,416.838,347.717,415.659,346.638,415.020C340.696,411.500,340.252,411.173,339.756,409.945C339.521,409.363,339.477,405.203,339.477,382.976L339.477,356.694L340.115,356.211C340.465,355.945,341.320,355.422,342.014,355.047L343.275,354.367L344.172,354.846C344.665,355.110,345.289,355.480,345.559,355.668C345.958,355.946,349.578,358.146,352.965,360.169C353.316,360.378,353.890,360.721,354.240,360.930C354.591,361.140,357.615,362.938,360.960,364.927C364.305,366.916,367.196,368.698,367.384,368.886C367.708,369.211,367.627,369.293,365.920,370.372C364.643,371.180,364.083,371.656,364.008,371.999C363.952,372.266,363.927,377.329,363.960,383.250L364.016,394.017L365.924,395.308C366.973,396.018,368.361,396.899,369.009,397.267C369.656,397.634,370.318,398.038,370.480,398.164C370.642,398.290,370.985,398.516,371.243,398.667C371.500,398.817,372.008,399.116,372.371,399.330C372.734,399.544,373.362,399.913,373.766,400.150C374.171,400.388,375.252,401.043,376.169,401.608C378.238,402.880,378.923,403.288,380.289,404.062C380.883,404.398,381.457,404.742,381.565,404.826C381.673,404.910,382.092,405.173,382.496,405.409C383.337,405.900,384.318,406.482,385.243,407.038C385.593,407.249,387.602,408.454,389.706,409.715C391.810,410.976,393.819,412.181,394.169,412.391C394.520,412.602,395.094,412.946,395.445,413.154C395.795,413.363,396.446,413.753,396.890,414.021C397.334,414.289,399.585,415.641,401.893,417.024C404.200,418.407,406.220,419.621,406.382,419.723C406.544,419.824,407.162,420.197,407.755,420.552C408.349,420.906,409.099,421.356,409.423,421.551C409.747,421.746,411.424,422.754,413.150,423.791C414.877,424.828,416.576,425.849,416.927,426.060C417.277,426.271,417.874,426.627,418.251,426.851C418.629,427.076,419.247,427.443,419.625,427.667C420.002,427.892,420.620,428.259,420.998,428.483C421.930,429.037,422.556,429.413,425.412,431.135C426.761,431.949,428.151,432.786,428.502,432.997C428.852,433.207,429.426,433.552,429.777,433.762C430.127,433.973,431.504,434.799,432.836,435.598C434.168,436.397,435.297,437.051,435.345,437.051C435.393,437.051,435.673,437.223,435.965,437.433C436.653,437.927,439.903,439.900,446.534,443.848C452.850,447.608,453.248,447.864,454.258,448.813L455.036,449.543L455.036,492.125C455.036,532.421,455.020,534.724,454.693,535.028C454.504,535.204,453.290,535.984,451.995,536.760C449.747,538.108,448.156,539.070,439.930,544.060C437.933,545.271,434.976,547.059,433.357,548.034C431.739,549.009,429.311,550.474,427.962,551.290C425.372,552.857,424.630,553.303,423.597,553.918C423.247,554.127,422.492,554.586,421.921,554.938C421.350,555.290,420.827,555.578,420.759,555.578C420.695,555.578,420.497,555.704,420.327,555.858C420.156,556.012,419.619,556.367,419.134,556.648C418.648,556.928,417.457,557.642,416.485,558.234C413.774,559.887,409.587,562.417,408.049,563.331C407.060,563.918,400.458,567.903,398.240,569.251C397.916,569.447,396.239,570.455,394.513,571.491C391.326,573.402,387.466,575.749,385.684,576.858C383.122,578.453,382.994,578.481,381.759,577.695ZZM417.465,409.237C415.522,408.081,413.328,406.752,412.589,406.283C411.850,405.814,411.214,405.431,411.175,405.431C411.135,405.431,410.639,405.142,410.067,404.790C408.900,404.071,409.009,404.136,404.713,401.553C402.986,400.515,401.088,399.388,400.495,399.049C399.901,398.710,399.181,398.263,398.895,398.055C398.609,397.848,398.300,397.678,398.209,397.678C397.857,397.676,396.971,396.752,397.112,396.535C397.192,396.411,397.960,395.911,398.818,395.423C401.345,393.987,401.083,395.425,401.083,382.977C401.083,376.441,401.011,372.006,400.895,371.785C400.739,371.483,399.340,370.483,397.589,369.424C397.403,369.312,396.503,368.751,395.587,368.179C394.672,367.606,393.525,366.907,393.040,366.624C392.554,366.342,391.362,365.628,390.391,365.038C387.767,363.444,387.659,363.379,384.898,361.732C383.495,360.896,381.862,359.932,381.269,359.591C380.675,359.249,379.086,358.302,377.737,357.487C375.084,355.883,374.404,355.476,373.274,354.816C372.869,354.579,372.450,354.317,372.342,354.233C372.234,354.149,371.661,353.805,371.067,353.469C370.473,353.133,369.657,352.660,369.252,352.419C368.847,352.179,368.230,351.811,367.879,351.602C367.529,351.393,366.756,350.921,366.162,350.553C364.967,349.812,365.119,349.904,360.865,347.347C359.193,346.341,357.039,345.045,356.080,344.466C355.120,343.887,354.312,343.413,354.283,343.413C354.251,343.413,353.318,342.849,352.202,342.159C351.086,341.469,349.908,340.748,349.585,340.558C348.991,340.209,340.475,335.100,339.383,334.439C339.059,334.242,336.985,333.002,334.773,331.683C332.561,330.363,330.442,329.099,330.064,328.874C329.687,328.648,328.838,328.154,328.179,327.776C327.520,327.397,326.836,326.920,326.658,326.716C326.361,326.375,326.339,323.819,326.385,294.446L326.433,262.547L328.002,261.602C328.865,261.082,331.293,259.617,333.397,258.345C335.501,257.074,337.709,255.760,338.302,255.425C338.896,255.090,339.469,254.747,339.577,254.663C339.685,254.579,340.083,254.329,340.460,254.107C340.838,253.885,341.941,253.220,342.912,252.629C343.883,252.039,345.164,251.279,345.757,250.940C346.351,250.601,347.070,250.155,347.357,249.948C347.643,249.740,347.938,249.571,348.014,249.571C348.086,249.571,348.383,249.401,348.670,249.194C348.956,248.986,349.676,248.540,350.269,248.202C350.863,247.864,352.761,246.733,354.487,245.689C357.285,243.996,361.095,241.697,363.021,240.539C363.399,240.312,364.194,239.850,364.787,239.513C365.381,239.176,366.100,238.730,366.387,238.523C366.673,238.316,366.959,238.146,367.022,238.146C367.086,238.146,367.866,237.696,368.757,237.146C371.291,235.583,377.522,231.828,378.717,231.144C379.310,230.804,380.369,230.157,381.071,229.707C382.867,228.553,383.245,228.594,385.877,230.227C387.064,230.964,390.375,232.967,393.234,234.679C399.412,238.378,399.516,238.440,400.395,238.962C400.773,239.187,401.369,239.543,401.719,239.753C402.978,240.510,408.475,243.819,410.302,244.921C411.327,245.539,412.563,246.274,413.049,246.555C413.535,246.836,414.373,247.342,414.913,247.680C416.871,248.903,419.449,250.464,420.504,251.064C421.098,251.402,422.201,252.064,422.956,252.535C424.154,253.282,425.437,254.047,428.160,255.636C428.540,255.858,429.952,256.708,431.299,257.525C434.218,259.297,434.339,259.370,437.033,260.987L439.142,262.252L439.142,294.853L439.142,327.454L438.664,327.779C438.401,327.958,437.871,328.290,437.487,328.517C436.208,329.270,435.322,329.799,434.783,330.131C434.490,330.311,432.945,331.248,431.350,332.212C429.755,333.176,427.214,334.713,425.703,335.628C424.193,336.543,422.805,337.292,422.619,337.292C422.434,337.293,421.992,337.119,421.638,336.908C421.284,336.696,419.362,335.534,417.365,334.327C415.369,333.119,413.449,331.961,413.098,331.754C412.441,331.365,411.564,330.844,410.450,330.181C410.099,329.972,409.345,329.513,408.774,329.161C408.202,328.809,407.706,328.521,407.672,328.521C407.640,328.521,406.576,327.878,405.314,327.093C404.052,326.307,402.972,325.665,402.915,325.665C402.859,325.665,402.576,325.495,402.289,325.288C402.003,325.080,401.283,324.633,400.689,324.294C399.684,323.720,396.960,322.027,396.787,321.869C396.550,321.652,397.820,320.748,400.788,319.021C401.004,318.895,401.489,318.606,401.867,318.378C402.244,318.150,403.745,317.251,405.202,316.380C409.474,313.826,412.744,311.758,412.899,311.511C412.979,311.385,413.045,303.195,413.046,293.310C413.049,276.449,413.030,275.319,412.706,275.021C412.402,274.740,411.526,274.175,409.616,273.029C409.292,272.835,408.233,272.193,407.262,271.603C403.920,269.573,400.942,267.785,399.709,267.068C399.223,266.785,398.218,266.167,397.476,265.694C396.733,265.221,395.828,264.658,395.465,264.444C395.102,264.230,394.517,263.883,394.167,263.672C393.816,263.462,392.337,262.577,390.881,261.706C389.424,260.835,387.593,259.722,386.813,259.233C386.032,258.743,385.359,258.343,385.316,258.343C385.276,258.343,384.726,258.021,384.098,257.629C383.471,257.236,382.842,256.915,382.699,256.915C382.459,256.915,377.630,259.738,374.661,261.614C373.957,262.059,373.353,262.423,373.320,262.423C373.288,262.423,372.347,262.987,371.231,263.677C370.115,264.367,368.915,265.102,368.565,265.310C365.801,266.945,364.841,267.522,360.374,270.232C353.319,274.512,352.428,275.106,352.409,275.550C352.337,277.188,352.481,309.866,352.561,310.078C352.642,310.299,353.809,311.054,357.572,313.322C357.758,313.434,360.751,315.225,364.224,317.300C367.697,319.376,370.855,321.269,371.243,321.507C373.533,322.914,375.616,324.165,376.559,324.702C377.152,325.039,377.726,325.384,377.834,325.468C377.942,325.552,378.361,325.814,378.766,326.051C379.171,326.287,379.811,326.664,380.188,326.889C380.566,327.113,381.184,327.480,381.561,327.705C381.939,327.929,382.557,328.296,382.935,328.521C384.161,329.249,384.867,329.674,386.662,330.765C388.458,331.855,389.164,332.280,390.390,333.009C390.767,333.233,391.385,333.600,391.763,333.825C392.141,334.049,392.759,334.416,393.136,334.641C393.514,334.865,394.110,335.223,394.461,335.436C395.210,335.892,402.045,340.014,403.044,340.613C403.421,340.840,404.216,341.300,404.809,341.636C405.403,341.973,405.977,342.317,406.085,342.401C406.193,342.485,406.590,342.736,406.967,342.958C407.345,343.180,408.758,344.028,410.106,344.841C412.963,346.563,413.588,346.939,414.521,347.493C414.898,347.718,415.516,348.085,415.894,348.309C416.271,348.534,416.889,348.901,417.267,349.125C417.645,349.350,418.285,349.731,418.689,349.973C419.094,350.215,419.602,350.515,419.818,350.639C422.188,352.007,424.503,353.547,424.821,353.966C425.825,355.294,425.801,354.592,425.801,382.507L425.801,408.470L425.164,408.958C424.383,409.555,421.367,411.348,421.151,411.343C421.065,411.341,419.406,410.393,417.465,409.237ZZM332.713,240.327C332.498,240.194,332.101,239.934,331.831,239.751C331.560,239.567,330.898,239.165,330.358,238.856C328.108,237.568,326.740,236.697,326.603,236.467C326.523,236.332,326.434,221.882,326.405,204.357C326.357,175.408,326.381,172.467,326.666,172.222C326.907,172.014,328.138,171.952,332.059,171.949C336.364,171.947,337.169,171.993,337.327,172.253C337.442,172.442,337.514,183.456,337.516,201.139C337.519,228.101,337.540,229.736,337.863,230.031C338.051,230.202,339.486,231.097,341.051,232.019C342.615,232.942,344.025,233.826,344.183,233.984C344.547,234.347,344.464,234.410,340.560,236.735C338.942,237.699,336.838,238.962,335.885,239.541C334.137,240.604,333.439,240.777,332.713,240.327ZZM431.580,240.410C431.478,240.308,431.085,240.044,430.707,239.822C430.330,239.601,428.608,238.572,426.882,237.534C425.155,236.497,423.468,235.485,423.132,235.285C421.949,234.580,421.683,234.374,421.688,234.170C421.691,234.057,423.028,233.184,424.660,232.230C426.292,231.276,427.835,230.329,428.088,230.124L428.549,229.753L428.549,201.130C428.549,177.818,428.597,172.466,428.805,172.285C429.086,172.043,438.966,171.911,439.330,172.145C439.654,172.353,439.615,236.397,439.290,236.672C438.945,236.963,434.223,239.777,434.070,239.783C433.998,239.785,433.723,239.967,433.453,240.186C432.940,240.603,431.900,240.727,431.580,240.410ZZ" style="fill: rgb(19, 21, 26);" class="fills"/></g></g></svg>