<svg width="750" xmlns="http://www.w3.org/2000/svg" height="750" fill="none"><defs><clipPath id="a" class="frame-clip frame-clip-def"><rect rx="0" ry="0" width="750" height="750" transform="matrix(1.000000, 0.000000, 0.000000, 1.000000, 0.000000, 0.000000)"/></clipPath></defs><g clip-path="url(#a)"><g class="fills"><rect width="750" height="750" class="frame-background" transform="matrix(1.000000, 0.000000, 0.000000, 1.000000, 0.000000, 0.000000)" style="fill: rgb(255, 255, 255); fill-opacity: 0;" ry="0" rx="0" fill="none"/></g><g xml:space="preserve" style="fill: rgb(0, 0, 0);" class="frame-children"><g style="opacity: 1;"><rect rx="0" ry="0" x="115.018" y="115" transform="matrix(1.000000, 0.000000, 0.000000, 1.000000, 0.000000, 0.000000)" width="519.982" height="520" style="stroke: none; fill-rule: nonzero; stroke-dashoffset: 0; stroke-width: 0; stroke-linejoin: miter; stroke-dasharray: none; stroke-miterlimit: 4; fill: rgb(0, 0, 0); fill-opacity: 0;" fill="none" class="fills"/></g><g style="fill: rgb(0, 0, 0);"><g style="opacity: 1;"><path d="M511.117,538.420L499.154,531.780L262.644,400.062C259.175,398.148,255.048,397.789,251.279,399.224C247.571,400.600,244.640,403.531,243.264,407.300L207.495,505.819L188.294,495.231L192.421,483.747L243.025,344.312L251.459,322.299L499.334,460.358C502.803,462.272,506.870,462.571,510.579,461.255C510.579,461.255,510.579,461.255,510.639,461.255C510.938,461.136,511.237,461.076,511.476,460.956C515.185,459.580,518.116,456.649,519.491,452.881L535.821,408.317L581.520,288.682L581.580,288.502L598.388,246.032L596.833,245.135L596.235,244.776L530.378,206.134L529.840,205.835L386.821,122.629C386.821,122.629,386.821,122.629,386.821,122.629L386.821,122.629L382.215,119.997C380.122,118.800,377.789,118.142,375.456,118.142C373.123,118.142,370.791,118.740,368.697,119.997L251.279,187.710L211.024,210.979L210.426,211.338L157.668,241.785C153.481,244.178,150.909,248.664,150.909,253.569L150.909,446.779L239.556,212.295L251.519,218.935L488.029,350.653C491.498,352.567,495.625,352.866,499.394,351.490C503.102,350.114,506.033,347.183,507.409,343.415L543.119,245.015L562.200,255.962L558.252,266.968L507.648,406.403L499.274,428.415L251.279,290.357C247.870,288.443,243.743,288.143,240.034,289.459C240.034,289.459,239.974,289.459,239.974,289.459C239.675,289.579,239.376,289.639,239.137,289.759C235.428,291.134,232.497,294.065,231.122,297.834L214.792,342.398L192.361,401.079L192.361,401.079L179.022,435.952L159.164,487.934C159.044,488.293,158.925,488.711,158.805,489.070L152.285,506.118L230.105,550.323L230.523,550.563L363.852,627.966C363.852,627.966,363.852,627.966,363.852,627.966L363.912,627.966L368.518,630.598C370.611,631.795,372.944,632.453,375.277,632.453C377.609,632.453,379.942,631.855,382.036,630.598L499.394,562.825L539.649,539.556L592.945,508.810C597.132,506.417,599.704,501.931,599.704,497.026L599.704,303.816L511.117,538.420ZZM178.065,297.236L178.065,261.345L195.292,251.416L195.651,251.176L178.065,297.236ZZM487.311,319.129L278.914,203.083L375.396,147.333L519.432,230.479L487.311,319.129ZZM375.277,603.262L231.241,520.116L263.362,431.466L471.759,547.512L375.277,603.262ZZM572.608,489.310L555.022,499.479L572.608,453.419L572.608,489.310ZZ" style="stroke: none; fill-rule: nonzero; stroke-dashoffset: 0; stroke-width: 1; stroke-linejoin: miter; stroke-dasharray: none; stroke-miterlimit: 4; fill: rgb(255, 255, 255);" class="fills"/></g><g style="opacity: 1;"><path d="M210.366,211.278L195.232,251.356L178.006,261.285L178.006,296.937L150.909,368.718L150.909,253.509C150.909,248.664,153.481,244.178,157.668,241.725L210.366,211.278ZZ" style="stroke: none; fill-rule: nonzero; stroke-dashoffset: 0; stroke-width: 1; stroke-linejoin: miter; stroke-dasharray: none; stroke-miterlimit: 4; fill: rgb(255, 255, 255);" class="fills"/></g><g style="opacity: 1;"><path d="M540.188,539.556L555.321,499.479L572.548,489.549L572.548,453.898L599.644,382.117L599.644,497.385C599.644,502.230,597.072,506.716,592.885,509.169L540.188,539.556ZZ" style="stroke: none; fill-rule: nonzero; stroke-dashoffset: 0; stroke-width: 1; stroke-linejoin: miter; stroke-dasharray: none; stroke-miterlimit: 4; fill: rgb(255, 255, 255);" class="fills"/></g></g></g></g></svg>