<?xml version="1.0" encoding="UTF-8" standalone="no" ?>
<!DOCTYPE svg PUBLIC "-//W3C//DTD SVG 1.1//EN" "http://www.w3.org/Graphics/SVG/1.1/DTD/svg11.dtd">
<svg xmlns="http://www.w3.org/2000/svg" xmlns:xlink="http://www.w3.org/1999/xlink" version="1.1" width="750" height="750" viewBox="0 0 750 750" xml:space="preserve">
<desc>Created with Fabric.js 5.3.0</desc>
<defs>
</defs>
<g transform="matrix(1.1029411764705883 0 0 1.1029411764705883 375 375)" id="background-custom-design"  >
<rect style="stroke: none; stroke-width: 0; stroke-dasharray: none; stroke-linecap: butt; stroke-dashoffset: 0; stroke-linejoin: miter; stroke-miterlimit: 4; fill: rgb(0,0,0); fill-opacity: 0; fill-rule: nonzero; opacity: 1;"  paint-order="stroke"  x="-340" y="-340" rx="0" ry="0" width="680" height="680" />
</g>
<g transform="matrix(1.0011441647597257 0 0 1.0011441647597257 377.7196260011441 377.26151315789514)" id="maker-logo"  >
<g style=""  paint-order="stroke"   >
		<g transform="matrix(1 0 0 1 0 0)" id="background-logo"  >
<rect style="stroke: none; stroke-width: 0; stroke-dasharray: none; stroke-linecap: butt; stroke-dashoffset: 0; stroke-linejoin: miter; stroke-miterlimit: 4; fill: rgb(0,0,0); fill-opacity: 0; fill-rule: nonzero; opacity: 0; visibility: hidden;"  paint-order="stroke"  x="-325" y="-260" rx="0" ry="0" width="650" height="520" />
</g>
		<g transform="matrix(2.4902878212903405 0 0 2.4902878212903405 0 0)" id="logo-logo"  >
<g style=""  paint-order="stroke"   >
		<g transform="matrix(0.24294144775397133 0 0 0.24294144775397136 0 0)"  >
<path style="stroke: none; stroke-width: 1; stroke-dasharray: none; stroke-linecap: butt; stroke-dashoffset: 0; stroke-linejoin: miter; stroke-miterlimit: 4; fill: rgb(5,196,107); fill-rule: nonzero; opacity: 1;"  paint-order="stroke"  transform=" translate(-574.3499999999999, -641.0999999999999)" d="M 801.4 913.8 L 781.4 902.6999999999999 L 386 682.5 C 380.2 679.3 373.3 678.7 367 681.1 C 360.8 683.4 355.9 688.3000000000001 353.6 694.6 L 293.8 859.3 L 261.7 841.5999999999999 L 268.59999999999997 822.3999999999999 L 353.19999999999993 589.2999999999998 L 367.29999999999995 552.4999999999999 L 781.6999999999999 783.3 C 787.4999999999999 786.5 794.3 787 800.4999999999999 784.8 C 800.4999999999999 784.8 800.4999999999999 784.8 800.5999999999999 784.8 C 801.0999999999999 784.5999999999999 801.5999999999999 784.5 801.9999999999999 784.3 C 808.1999999999999 782 813.0999999999999 777.0999999999999 815.3999999999999 770.8 L 842.6999999999998 696.3 L 919.0999999999998 496.29999999999995 L 919.1999999999998 495.99999999999994 L 947.2999999999998 424.99999999999994 L 944.6999999999998 423.49999999999994 L 943.6999999999998 422.8999999999999 L 833.5999999999998 358.29999999999995 L 832.6999999999998 357.79999999999995 L 593.6 218.7 C 593.6 218.7 593.6 218.7 593.6 218.7 L 593.6 218.7 L 585.9 214.29999999999998 C 582.4 212.29999999999998 578.5 211.2 574.6 211.2 C 570.7 211.2 566.8000000000001 212.2 563.3000000000001 214.29999999999998 L 367 327.5 L 299.7 366.4 L 298.7 367 L 210.5 417.9 C 203.5 421.9 199.2 429.4 199.2 437.59999999999997 L 199.2 760.5999999999999 L 347.4 368.5999999999999 L 367.4 379.69999999999993 L 762.8 599.8999999999999 C 768.5999999999999 603.0999999999999 775.5 603.5999999999999 781.8 601.2999999999998 C 788 598.9999999999999 792.9 594.0999999999998 795.1999999999999 587.7999999999998 L 854.9 423.29999999999984 L 886.8 441.59999999999985 L 880.1999999999999 459.99999999999983 L 795.5999999999999 693.0999999999998 L 781.5999999999999 729.8999999999997 L 367 499.1 C 361.3 495.90000000000003 354.4 495.40000000000003 348.2 497.6 C 348.2 497.6 348.09999999999997 497.6 348.09999999999997 497.6 C 347.59999999999997 497.8 347.09999999999997 497.90000000000003 346.7 498.1 C 340.5 500.40000000000003 335.59999999999997 505.3 333.3 511.6 L 306 586.1 L 268.5 684.2 L 268.5 684.2 L 246.2 742.5 L 213 829.4 C 212.8 830 212.6 830.6999999999999 212.4 831.3 L 201.5 859.8 L 331.6 933.6999999999999 L 332.3 934.0999999999999 L 555.2 1063.5 C 555.2 1063.5 555.2 1063.5 555.2 1063.5 L 555.3000000000001 1063.5 L 563.0000000000001 1067.9 C 566.5000000000001 1069.9 570.4000000000001 1071 574.3000000000001 1071 C 578.2 1071 582.1 1070 585.6 1067.9 L 781.8 954.6000000000001 L 849.0999999999999 915.7000000000002 L 938.1999999999999 864.3000000000002 C 945.1999999999999 860.3000000000002 949.4999999999999 852.8000000000002 949.4999999999999 844.6000000000001 L 949.4999999999999 521.6000000000001 L 801.4 913.8 z M 244.6 510.6 L 244.6 450.6 L 273.4 434 L 274 433.6 L 244.6 510.6 z M 761.6 547.2 L 413.20000000000005 353.20000000000005 L 574.5 260.00000000000006 L 815.3 399.00000000000006 L 761.6 547.2 z M 574.3 1022.2 L 333.49999999999994 883.2 L 387.2 735 L 735.5999999999999 929 L 574.3 1022.2 z M 904.2 831.7 L 874.8000000000001 848.7 L 904.2 771.7 L 904.2 831.7 z" stroke-linecap="round" />
</g>
		<g transform="matrix(0.24294144775397133 0 0 0.24294144775397136 -79.06529417152996 -34.64345044971634)"  >
<path style="stroke: none; stroke-width: 1; stroke-dasharray: none; stroke-linecap: butt; stroke-dashoffset: 0; stroke-linejoin: miter; stroke-miterlimit: 4; fill: rgb(11,204,116); fill-rule: nonzero; opacity: 1;"  paint-order="stroke"  transform=" translate(-248.99999999999997, -498.5)" d="M 298.7 366.9 L 273.4 433.9 L 244.59999999999997 450.5 L 244.59999999999997 510.1 L 199.29999999999995 630.1 L 199.29999999999995 437.5 C 199.29999999999995 429.4 203.59999999999997 421.9 210.59999999999997 417.8 L 298.7 366.9 z" stroke-linecap="round" />
</g>
		<g transform="matrix(0.24294144775397133 0 0 0.24294144775397136 79.04100002675455 34.740627028817954)"  >
<path style="stroke: none; stroke-width: 1; stroke-dasharray: none; stroke-linecap: butt; stroke-dashoffset: 0; stroke-linejoin: miter; stroke-miterlimit: 4; fill: rgb(11,204,116); fill-rule: nonzero; opacity: 1;"  paint-order="stroke"  transform=" translate(-899.8, -784.1)" d="M 850.1 915.7 L 875.4 848.7 L 904.1999999999999 832.1 L 904.1999999999999 772.5 L 949.4999999999999 652.5 L 949.4999999999999 845.2 C 949.4999999999999 853.3000000000001 945.1999999999999 860.8000000000001 938.1999999999999 864.9000000000001 L 850.1 915.7 z" stroke-linecap="round" />
</g>
</g>
</g>
		<g transform="matrix(1 0 0 1 -4.258661337854264 -29.278404497148685)" id="text-logo"  >
<g style=""  paint-order="stroke"   >
		<g transform="matrix(1 0 0 1 0 0)" id="text-logo-path-0"  >
<path style="stroke: rgb(0,0,0); stroke-width: 4.097247716353749; stroke-dasharray: none; stroke-linecap: butt; stroke-dashoffset: 0; stroke-linejoin: miter; stroke-miterlimit: 4; fill: rgb(0,0,0); fill-rule: nonzero; opacity: 0;"  paint-order="stroke"  transform=" translate(-112.345, 20.88)" d="M 10.9 0 L 3.25 0 L 3.25 -41.76 L 11.66 -41.76 L 37.29 -11.25 L 37.29 -41.76 L 45.01 -41.76 L 45.01 0 L 36.6 0 L 10.9 -30.57 L 10.9 0 Z M 102.25 0 L 63.8 0 L 63.8 -41.76 L 102.25 -41.76 L 102.25 -34.05 L 71.51 -34.05 L 71.51 -24.77 L 96.22 -24.77 L 96.22 -16.99 L 71.51 -16.99 L 71.51 -7.71 L 102.25 -7.71 L 102.25 0 Z M 128.01 0 L 119.71 0 L 119.71 0 L 119.71 -2.15 L 135.43 -20.88 L 119.71 -39.61 L 119.71 -41.76 L 128.01 -41.76 L 140.53 -26.91 L 152.95 -41.76 L 161.3 -41.76 L 161.3 -39.61 L 145.52 -20.88 L 161.3 -2.2 L 161.3 0 L 152.95 0 L 140.48 -14.79 L 128.01 0 Z M 187.34 0 L 179.68 0 L 179.68 -33.7 Q 179.68 -35.9 180.79 -37.73 Q 181.89 -39.56 183.72 -40.66 Q 185.54 -41.76 187.75 -41.76 L 187.75 -41.76 L 213.32 -41.76 Q 215.53 -41.76 217.38 -40.66 Q 219.24 -39.56 220.34 -37.73 Q 221.44 -35.9 221.44 -33.7 L 221.44 -33.7 L 221.44 0 L 213.73 0 L 213.73 -14.04 L 187.34 -14.04 L 187.34 0 Z M 187.34 -33.35 L 187.34 -21.69 L 213.73 -21.69 L 213.73 -33.35 Q 213.73 -33.64 213.5 -33.84 Q 213.27 -34.05 212.98 -34.05 L 212.98 -34.05 L 188.04 -34.05 Q 187.75 -34.05 187.54 -33.84 Q 187.34 -33.64 187.34 -33.35 L 187.34 -33.35 Z" stroke-linecap="round" />
</g>
</g>
</g>
		<g transform="matrix(1 0 0 1 -4.398661337854264 32.19376048087453)" id="tagline-57167731-bda4-4a65-b5a3-8bcfbdf847f5-logo"  >
<g style=""  paint-order="stroke"   >
		<g transform="matrix(1 0 0 1 0 0)" id="tagline-57167731-bda4-4a65-b5a3-8bcfbdf847f5-logo-path-0"  >
<path style="stroke: rgb(0,0,0); stroke-width: 3.5517701544529756; stroke-dasharray: none; stroke-linecap: butt; stroke-dashoffset: 0; stroke-linejoin: miter; stroke-miterlimit: 4; fill: rgb(0,0,0); fill-rule: nonzero; opacity: 0;"  paint-order="stroke"  transform=" translate(-109.825, 18.72)" d="M 29.64 0 L 23.5 0 L 23.5 0 L 1.82 -37.44 L 9.83 -37.44 L 26.57 -8.32 L 43.37 -37.44 L 51.32 -37.44 L 29.64 0 Z M 90.27 0 L 55.8 0 L 55.8 -37.44 L 90.27 -37.44 L 90.27 -30.52 L 62.71 -30.52 L 62.71 -22.2 L 84.86 -22.2 L 84.86 -15.24 L 62.71 -15.24 L 62.71 -6.92 L 90.27 -6.92 L 90.27 0 Z M 133.48 0 L 126 0 L 114.71 -13.47 L 123.71 -13.47 L 133.48 -1.92 L 133.48 0 Z M 103.01 0 L 96.15 0 L 96.15 -37.39 L 126.31 -37.39 Q 128.28 -37.39 129.95 -36.4 Q 131.61 -35.41 132.6 -33.77 Q 133.59 -32.14 133.59 -30.16 L 133.59 -30.16 L 133.59 -20.07 Q 133.59 -18.1 132.6 -16.43 Q 131.61 -14.77 129.95 -13.81 Q 128.28 -12.84 126.31 -12.84 L 126.31 -12.84 L 103.01 -12.79 L 103.01 0 Z M 103.64 -19.76 L 103.64 -19.76 L 126 -19.76 Q 126.26 -19.76 126.46 -19.92 Q 126.67 -20.07 126.67 -20.33 L 126.67 -20.33 L 126.67 -29.9 Q 126.67 -30.16 126.46 -30.34 Q 126.26 -30.52 126 -30.52 L 126 -30.52 L 103.64 -30.52 Q 103.38 -30.52 103.19 -30.34 Q 103.01 -30.16 103.01 -29.9 L 103.01 -29.9 L 103.01 -20.33 Q 103.01 -20.07 103.19 -19.92 Q 103.38 -19.76 103.64 -19.76 Z M 169.73 0 L 146.74 0 Q 144.77 0 143.13 -0.99 Q 141.49 -1.98 140.5 -3.61 Q 139.52 -5.25 139.52 -7.23 L 139.52 -7.23 L 139.52 -10.09 L 146.38 -10.09 L 146.38 -7.54 Q 146.38 -7.28 146.56 -7.1 Q 146.74 -6.92 147 -6.92 L 147 -6.92 L 169.42 -6.92 Q 169.68 -6.92 169.86 -7.1 Q 170.04 -7.28 170.04 -7.54 L 170.04 -7.54 L 170.04 -14.66 Q 170.04 -14.92 169.86 -15.08 Q 169.68 -15.24 169.42 -15.24 L 169.42 -15.24 L 146.74 -15.24 Q 144.77 -15.24 143.13 -16.22 Q 141.49 -17.21 140.5 -18.85 Q 139.52 -20.49 139.52 -22.52 L 139.52 -22.52 L 139.52 -30.21 Q 139.52 -32.19 140.5 -33.83 Q 141.49 -35.46 143.13 -36.45 Q 144.77 -37.44 146.74 -37.44 L 146.74 -37.44 L 169.73 -37.44 Q 171.7 -37.44 173.34 -36.45 Q 174.98 -35.46 175.97 -33.83 Q 176.96 -32.19 176.96 -30.21 L 176.96 -30.21 L 176.96 -27.35 L 170.04 -27.35 L 170.04 -29.9 Q 170.04 -30.16 169.86 -30.34 Q 169.68 -30.52 169.42 -30.52 L 169.42 -30.52 L 147 -30.52 Q 146.74 -30.52 146.56 -30.34 Q 146.38 -30.16 146.38 -29.9 L 146.38 -29.9 L 146.38 -22.78 Q 146.38 -22.52 146.56 -22.36 Q 146.74 -22.2 147 -22.2 L 147 -22.2 L 169.73 -22.2 Q 171.7 -22.2 173.34 -21.22 Q 174.98 -20.23 175.97 -18.59 Q 176.96 -16.95 176.96 -14.92 L 176.96 -14.92 L 176.96 -7.23 Q 176.96 -5.25 175.97 -3.61 Q 174.98 -1.98 173.34 -0.99 Q 171.7 0 169.73 0 L 169.73 0 Z M 217.83 0 L 183.35 0 L 183.35 -37.44 L 217.83 -37.44 L 217.83 -30.52 L 190.27 -30.52 L 190.27 -22.2 L 212.42 -22.2 L 212.42 -15.24 L 190.27 -15.24 L 190.27 -6.92 L 217.83 -6.92 L 217.83 0 Z" stroke-linecap="round" />
</g>
</g>
</g>
</g>
</g>
</svg>