<svg width="750" xmlns="http://www.w3.org/2000/svg" height="750" fill="none"><defs><clipPath id="a" class="frame-clip frame-clip-def"><rect rx="0" ry="0" width="750" height="750" transform="matrix(1.000000, 0.000000, 0.000000, 1.000000, 0.000000, 0.000000)"/></clipPath></defs><g clip-path="url(#a)"><g class="fills"><rect width="750" height="750" class="frame-background" transform="matrix(1.000000, 0.000000, 0.000000, 1.000000, 0.000000, 0.000000)" style="fill: rgb(255, 255, 255); fill-opacity: 0;" ry="0" rx="0" fill="none"/></g><g xml:space="preserve" style="fill: rgb(0, 0, 0);" class="frame-children"><g style="opacity: 1;"><rect rx="0" ry="0" x="115.004" y="115" transform="matrix(1.000000, 0.000000, 0.000000, 1.000000, 0.000000, 0.000000)" width="519.996" height="520" style="stroke: none; fill-rule: nonzero; stroke-dashoffset: 0; stroke-width: 0; stroke-linejoin: miter; stroke-dasharray: none; stroke-miterlimit: 4; fill: rgb(0, 0, 0); fill-opacity: 0;" fill="none" class="fills"/></g><g style="fill: rgb(0, 0, 0);"><g style="fill: rgb(0, 0, 0);"><g style="fill: rgb(0, 0, 0);"><g style="opacity: 1;"><defs><linearGradient x1="0" y1="0" x2="0" y2="860" id="b" gradientUnits="userSpaceOnUse" gradientTransform="matrix(0.598825, 0.000000, 0.000000, 0.598830, 31.364270, -8.612584) matrix(1 0 0 1 199.19999999999993 211.19999999999993)"><stop offset="0" style="stop-color: rgb(23, 234, 217); stop-opacity: 1;"/><stop offset="1" style="stop-color: rgb(96, 120, 234); stop-opacity: 1;"/></linearGradient></defs><path d="M511.263,538.598L499.286,531.951L262.511,400.089C259.038,398.173,254.906,397.813,251.133,399.251C247.420,400.628,244.486,403.562,243.109,407.335L207.299,505.962L188.077,495.363L192.209,483.865L242.869,344.278L251.313,322.241L499.466,460.451C502.939,462.367,507.011,462.667,510.724,461.349C510.724,461.349,510.724,461.349,510.784,461.349C511.083,461.230,511.383,461.170,511.622,461.050C515.335,459.673,518.269,456.738,519.646,452.966L535.994,408.353L581.745,288.587L581.805,288.407L598.632,245.890L597.075,244.992L596.476,244.633L530.545,205.948L530.006,205.649L386.827,122.352C386.827,122.352,386.827,122.352,386.827,122.352L386.827,122.352L382.216,119.717C380.120,118.519,377.785,117.860,375.449,117.860C373.114,117.860,370.778,118.459,368.683,119.717L251.133,187.504L210.832,210.799L210.233,211.158L157.417,241.639C153.225,244.034,150.650,248.525,150.650,253.436L150.650,446.858L239.396,212.116L251.373,218.763L488.148,350.626C491.621,352.542,495.753,352.841,499.526,351.464C503.239,350.087,506.173,347.152,507.550,343.380L543.300,244.872L562.403,255.831L558.450,266.849L507.790,406.437L499.406,428.474L251.133,290.264C247.720,288.347,243.588,288.048,239.875,289.365C239.875,289.365,239.815,289.365,239.815,289.365C239.516,289.485,239.217,289.545,238.977,289.665C235.264,291.042,232.330,293.976,230.953,297.749L214.605,342.362L192.149,401.107L192.149,401.107L178.795,436.019L158.914,488.057C158.794,488.417,158.675,488.836,158.555,489.195L152.028,506.262L229.935,550.515L230.354,550.755L363.832,628.243C363.832,628.243,363.832,628.243,363.832,628.243L363.892,628.243L368.503,630.878C370.599,632.076,372.934,632.735,375.270,632.735C377.605,632.735,379.941,632.136,382.036,630.878L499.526,563.031L539.827,539.736L593.182,508.956C597.374,506.561,599.949,502.070,599.949,497.159L599.949,303.737L511.263,538.598ZZM177.837,297.150L177.837,261.220L195.083,251.280L195.442,251.040L177.837,297.150ZZM487.430,319.067L278.799,202.894L375.389,147.083L519.587,230.321L487.430,319.067ZZM375.270,603.512L231.073,520.274L263.229,431.528L471.860,547.701L375.270,603.512ZZM572.822,489.435L555.217,499.615L572.822,453.505L572.822,489.435ZZ" style="stroke: none; fill-rule: nonzero; fill: url(&quot;#b&quot;); stroke-dashoffset: 0; stroke-width: 1; stroke-linejoin: miter; stroke-dasharray: none; stroke-miterlimit: 4;" class="fills"/></g></g><g style="fill: rgb(0, 0, 0);"><g style="opacity: 1;"><defs><linearGradient x1="0" y1="0" x2="0" y2="263" id="c" gradientUnits="userSpaceOnUse" gradientTransform="matrix(0.598825, 0.000000, 0.000000, 0.598830, 31.304387, -8.612584) matrix(1 0 0 1 199.29999999999995 366.9)"><stop offset="0" style="stop-color: rgb(23, 234, 217); stop-opacity: 1;"/><stop offset="1" style="stop-color: rgb(96, 120, 234); stop-opacity: 1;"/></linearGradient></defs><path d="M210.174,211.098L195.023,251.220L177.777,261.160L177.777,296.851L150.650,368.710L150.650,253.376C150.650,248.525,153.225,244.034,157.417,241.579L210.174,211.098ZZ" style="stroke: none; fill-rule: nonzero; fill: url(&quot;#c&quot;); stroke-dashoffset: 0; stroke-width: 1; stroke-linejoin: miter; stroke-dasharray: none; stroke-miterlimit: 4;" class="fills"/></g></g><g style="fill: rgb(0, 0, 0);"><g style="opacity: 1;"><defs><linearGradient x1="0" y1="0" x2="0" y2="263" id="d" gradientUnits="userSpaceOnUse" gradientTransform="matrix(0.598825, 0.000000, 0.000000, 0.598830, 31.304387, -8.612584) matrix(1 0 0 1 850.1 652.5)"><stop offset="0" style="stop-color: rgb(23, 234, 217); stop-opacity: 1;"/><stop offset="1" style="stop-color: rgb(96, 120, 234); stop-opacity: 1;"/></linearGradient></defs><path d="M540.366,539.736L555.516,499.615L572.762,489.674L572.762,453.984L599.889,382.124L599.889,497.519C599.889,502.369,597.314,506.860,593.122,509.316L540.366,539.736ZZ" style="stroke: none; fill-rule: nonzero; fill: url(&quot;#d&quot;); stroke-dashoffset: 0; stroke-width: 1; stroke-linejoin: miter; stroke-dasharray: none; stroke-miterlimit: 4;" class="fills"/></g></g></g></g></g></g></svg>